<svg xmlns="http://www.w3.org/2000/svg" viewBox="0 0 512 512">
  <!-- Font Awesome Free 5.15.4 by @fontawesome - https://fontawesome.com License - https://fontawesome.com/license/free (Icons: CC BY 4.0, Fonts: SIL OFL 1.1, Code: MIT License) -->
  <path fill="#2563EB" d="M12.41 148.02l232.94 105.67c6.8 3.09 14.49 3.09 21.29 0l232.94-105.67c16.55-7.51 16.55-32.52 0-40.03L266.65 2.31a25.607 25.607 0 0 0-21.29 0L12.41 107.98c-16.55 7.51-16.55 32.53 0 40.04zm487.18 88.28l-58.09-26.33-161.64 73.27c-7.56 3.43-15.59 5.17-23.86 5.17s-16.29-1.74-23.86-5.17L70.07 210.02l-58.09-26.33c-16.55-7.51-16.55-32.52 0-40.03L235.34 68.31a25.607 25.607 0 0 0 21.29 0l223.36 101.21c16.55 7.51 16.55 32.53 0 40.04zM500 376.02L266.65 481.69a25.607 25.607 0 0 1-21.29 0L12.41 376.02c-16.55-7.51-16.55-32.53 0-40.04L235.34 234.77a25.607 25.607 0 0 1 21.29 0l223.36 101.21c16.55 7.51 16.55 32.53 0 40.04z"/>
</svg>
